<svg width="225" height="151" viewBox="0 0 225 151" fill="none" xmlns="http://www.w3.org/2000/svg">
<rect width="225" height="151" fill="black"/>
<path d="M47.0754 138.41C47.0754 139.96 47.9154 140.98 49.0954 140.98C49.9354 140.98 50.5454 140.47 50.7654 139.63L51.9654 140.04C51.5454 141.31 50.5454 142.11 49.0954 142.11C47.1854 142.11 45.7954 140.59 45.7954 138.41C45.7954 136.23 47.1854 134.71 49.0954 134.71C50.5454 134.71 51.5454 135.51 51.9654 136.78L50.7654 137.19C50.5454 136.35 49.9354 135.84 49.0954 135.84C47.9154 135.84 47.0754 136.86 47.0754 138.41ZM52.4653 138.41C52.4653 136.23 53.8653 134.71 55.8053 134.71C57.7453 134.71 59.1453 136.23 59.1453 138.41C59.1453 140.59 57.7453 142.11 55.8053 142.11C53.8653 142.11 52.4653 140.59 52.4653 138.41ZM57.8653 138.41C57.8653 136.85 57.0153 135.84 55.8053 135.84C54.5953 135.84 53.7453 136.85 53.7453 138.41C53.7453 139.97 54.5953 140.98 55.8053 140.98C57.0153 140.98 57.8653 139.97 57.8653 138.41ZM66.05 134.82V142H64.93L61.37 136.73V142H60.14V134.82H61.46L64.82 139.85V134.82H66.05ZM73.3156 134.82V142H72.1956L68.6356 136.73V142H67.4056V134.82H68.7256L72.0856 139.85V134.82H73.3156ZM74.6712 134.82H79.5312V135.94H75.9312V137.74H78.9612V138.86H75.9312V140.88H79.5312V142H74.6712V134.82ZM81.3722 138.41C81.3722 139.96 82.2122 140.98 83.3922 140.98C84.2322 140.98 84.8422 140.47 85.0622 139.63L86.2622 140.04C85.8422 141.31 84.8422 142.11 83.3922 142.11C81.4822 142.11 80.0922 140.59 80.0922 138.41C80.0922 136.23 81.4822 134.71 83.3922 134.71C84.8422 134.71 85.8422 135.51 86.2622 136.78L85.0622 137.19C84.8422 136.35 84.2322 135.84 83.3922 135.84C82.2122 135.84 81.3722 136.86 81.3722 138.41ZM92.4045 135.94H90.0945V142H88.8145V135.94H86.5045V134.82H92.4045V135.94ZM94.5157 134.82V142H93.2357V134.82H94.5157ZM101.782 134.82V142H100.662L97.1024 136.73V142H95.8724V134.82H97.1924L100.552 139.85V134.82H101.782ZM107.938 142V141.26C107.648 141.74 106.948 142.11 106.008 142.11C104.148 142.11 102.768 140.61 102.768 138.44C102.768 136.26 104.158 134.71 106.088 134.71C107.558 134.71 108.548 135.5 108.988 136.77L107.768 137.18C107.558 136.33 106.958 135.84 106.098 135.84C104.888 135.84 104.048 136.87 104.048 138.42C104.048 139.97 104.888 141.01 106.118 141.01C107.158 141.01 107.838 140.27 107.878 139.25H105.988V138.13H109.108V142H107.938ZM113.744 134.82V142H112.464V134.82H113.744ZM121.011 134.82V142H119.891L116.331 136.73V142H115.101V134.82H116.421L119.781 139.85V134.82H121.011ZM127.737 135.94H125.427V142H124.147V135.94H121.837V134.82H127.737V135.94ZM128.568 134.82H133.428V135.94H129.828V137.74H132.858V138.86H129.828V140.88H133.428V142H128.568V134.82ZM134.505 142V134.82H135.785V140.88H139.165V142H134.505ZM139.993 142V134.82H141.273V140.88H144.653V142H139.993ZM146.762 134.82V142H145.482V134.82H146.762ZM152.918 142V141.26C152.628 141.74 151.928 142.11 150.988 142.11C149.128 142.11 147.748 140.61 147.748 138.44C147.748 136.26 149.138 134.71 151.068 134.71C152.538 134.71 153.528 135.5 153.968 136.77L152.748 137.18C152.538 136.33 151.938 135.84 151.078 135.84C149.868 135.84 149.028 136.87 149.028 138.42C149.028 139.97 149.868 141.01 151.098 141.01C152.138 141.01 152.818 140.27 152.858 139.25H150.968V138.13H154.088V142H152.918ZM155.384 134.82H160.244V135.94H156.644V137.74H159.674V138.86H156.644V140.88H160.244V142H155.384V134.82ZM167.232 134.82V142H166.112L162.552 136.73V142H161.322V134.82H162.642L166.002 139.85V134.82H167.232ZM169.497 138.41C169.497 139.96 170.337 140.98 171.517 140.98C172.357 140.98 172.967 140.47 173.187 139.63L174.387 140.04C173.967 141.31 172.967 142.11 171.517 142.11C169.607 142.11 168.217 140.59 168.217 138.41C168.217 136.23 169.607 134.71 171.517 134.71C172.967 134.71 173.967 135.51 174.387 136.78L173.187 137.19C172.967 136.35 172.357 135.84 171.517 135.84C170.337 135.84 169.497 136.86 169.497 138.41ZM175.257 134.82H180.117V135.94H176.517V137.74H179.547V138.86H176.517V140.88H180.117V142H175.257V134.82Z" fill="white"/>
<path d="M43 139H27" stroke="white" stroke-width="2" stroke-linejoin="round"/>
<circle cx="27" cy="139" r="1.5" fill="white" stroke="white"/>
<path d="M183 139L199 139" stroke="white" stroke-width="2" stroke-linejoin="round"/>
<circle cx="199" cy="139" r="1.5" transform="rotate(-180 199 139)" fill="white" stroke="white"/>
<path d="M183 108H200L183 123H201" stroke="white" stroke-width="3" stroke-linejoin="round"/>
<path d="M141 106.5V123H158V106.5" stroke="white" stroke-width="3" stroke-linejoin="round"/>
<path d="M100 124V107.5C100 107.5 112.402 107.5 115 107.5C117.598 107.5 117.598 109.971 117.598 112C117.598 114.029 117.598 116.5 115 116.5C112.402 116.5 104.5 116.5 104.5 116.5" stroke="white" stroke-width="3"/>
<path d="M73 106.5V124" stroke="white" stroke-width="3"/>
<path d="M36.3814 102C42.6672 102 47.7629 107.122 47.7629 113.44C47.7629 116.035 46.9032 118.427 45.4554 120.346L43.3015 118.045C44.1725 116.726 44.6804 115.143 44.6804 113.44C44.6804 108.833 40.9648 105.098 36.3814 105.098C31.798 105.098 28.0825 108.833 28.0825 113.44C28.0825 118.048 31.798 121.782 36.3814 121.782C36.954 121.782 37.5129 121.724 38.0528 121.613L40.3614 124.161C39.1225 124.626 37.7817 124.881 36.3814 124.881C30.0956 124.881 25 119.759 25 113.44C25 107.122 30.0956 102 36.3814 102Z" fill="white"/>
<path d="M41.2423 117.85H36.2629L42.9021 125H48L41.2423 117.85Z" fill="white"/>
<path d="M36.3814 102C42.6672 102 47.7629 107.122 47.7629 113.44C47.7629 116.035 46.9032 118.427 45.4554 120.346L43.3015 118.045C44.1725 116.726 44.6804 115.143 44.6804 113.44C44.6804 108.833 40.9648 105.098 36.3814 105.098C31.798 105.098 28.0825 108.833 28.0825 113.44C28.0825 118.048 31.798 121.782 36.3814 121.782C36.954 121.782 37.5129 121.724 38.0528 121.613L40.3614 124.161C39.1225 124.626 37.7817 124.881 36.3814 124.881C30.0956 124.881 25 119.759 25 113.44C25 107.122 30.0956 102 36.3814 102Z" stroke="white"/>
<path d="M41.2423 117.85H36.2629L42.9021 125H48L41.2423 117.85Z" stroke="white"/>
<path d="M112.237 46C126.175 46 137.474 57.3576 137.474 71.3679C137.474 77.1203 135.568 82.4243 132.358 86.6798L127.582 81.5791C129.513 78.6527 130.639 75.1428 130.639 71.3679C130.639 61.152 122.4 52.8705 112.237 52.8705C102.074 52.8705 93.8351 61.152 93.8351 71.3679C93.8351 81.5837 102.074 89.8653 112.237 89.8653C113.507 89.8653 114.746 89.7356 115.943 89.4896L121.062 95.1394C118.315 96.1704 115.342 96.7358 112.237 96.7358C98.299 96.7358 87 85.3782 87 71.3679C87 57.3576 98.299 46 112.237 46Z" fill="white"/>
<path d="M123.015 81.1451H111.974L126.696 97H138L123.015 81.1451Z" fill="white"/>
</svg>
