<svg width="177" height="99" viewBox="0 0 177 99" fill="none" xmlns="http://www.w3.org/2000/svg">
<path d="M22.5754 92.41C22.5754 93.96 23.4154 94.98 24.5954 94.98C25.4354 94.98 26.0454 94.47 26.2654 93.63L27.4654 94.04C27.0454 95.31 26.0454 96.11 24.5954 96.11C22.6854 96.11 21.2954 94.59 21.2954 92.41C21.2954 90.23 22.6854 88.71 24.5954 88.71C26.0454 88.71 27.0454 89.51 27.4654 90.78L26.2654 91.19C26.0454 90.35 25.4354 89.84 24.5954 89.84C23.4154 89.84 22.5754 90.86 22.5754 92.41ZM27.9653 92.41C27.9653 90.23 29.3653 88.71 31.3053 88.71C33.2453 88.71 34.6453 90.23 34.6453 92.41C34.6453 94.59 33.2453 96.11 31.3053 96.11C29.3653 96.11 27.9653 94.59 27.9653 92.41ZM33.3653 92.41C33.3653 90.85 32.5153 89.84 31.3053 89.84C30.0953 89.84 29.2453 90.85 29.2453 92.41C29.2453 93.97 30.0953 94.98 31.3053 94.98C32.5153 94.98 33.3653 93.97 33.3653 92.41ZM41.55 88.82V96H40.43L36.87 90.73V96H35.64V88.82H36.96L40.32 93.85V88.82H41.55ZM48.8156 88.82V96H47.6956L44.1356 90.73V96H42.9056V88.82H44.2256L47.5856 93.85V88.82H48.8156ZM50.1712 88.82H55.0312V89.94H51.4312V91.74H54.4612V92.86H51.4312V94.88H55.0312V96H50.1712V88.82ZM56.8722 92.41C56.8722 93.96 57.7122 94.98 58.8922 94.98C59.7322 94.98 60.3422 94.47 60.5622 93.63L61.7622 94.04C61.3422 95.31 60.3422 96.11 58.8922 96.11C56.9822 96.11 55.5922 94.59 55.5922 92.41C55.5922 90.23 56.9822 88.71 58.8922 88.71C60.3422 88.71 61.3422 89.51 61.7622 90.78L60.5622 91.19C60.3422 90.35 59.7322 89.84 58.8922 89.84C57.7122 89.84 56.8722 90.86 56.8722 92.41ZM67.9045 89.94H65.5945V96H64.3145V89.94H62.0045V88.82H67.9045V89.94ZM70.0157 88.82V96H68.7357V88.82H70.0157ZM77.2824 88.82V96H76.1624L72.6024 90.73V96H71.3724V88.82H72.6924L76.0524 93.85V88.82H77.2824ZM83.438 96V95.26C83.148 95.74 82.448 96.11 81.508 96.11C79.648 96.11 78.268 94.61 78.268 92.44C78.268 90.26 79.658 88.71 81.588 88.71C83.058 88.71 84.048 89.5 84.488 90.77L83.268 91.18C83.058 90.33 82.458 89.84 81.598 89.84C80.388 89.84 79.548 90.87 79.548 92.42C79.548 93.97 80.388 95.01 81.618 95.01C82.658 95.01 83.338 94.27 83.378 93.25H81.488V92.13H84.608V96H83.438ZM89.2442 88.82V96H87.9642V88.82H89.2442ZM96.5109 88.82V96H95.3909L91.8309 90.73V96H90.6009V88.82H91.9209L95.2809 93.85V88.82H96.5109ZM103.237 89.94H100.927V96H99.6465V89.94H97.3365V88.82H103.237V89.94ZM104.068 88.82H108.928V89.94H105.328V91.74H108.358V92.86H105.328V94.88H108.928V96H104.068V88.82ZM110.005 96V88.82H111.285V94.88H114.665V96H110.005ZM115.493 96V88.82H116.773V94.88H120.153V96H115.493ZM122.262 88.82V96H120.982V88.82H122.262ZM128.418 96V95.26C128.128 95.74 127.428 96.11 126.488 96.11C124.628 96.11 123.248 94.61 123.248 92.44C123.248 90.26 124.638 88.71 126.568 88.71C128.038 88.71 129.028 89.5 129.468 90.77L128.248 91.18C128.038 90.33 127.438 89.84 126.578 89.84C125.368 89.84 124.528 90.87 124.528 92.42C124.528 93.97 125.368 95.01 126.598 95.01C127.638 95.01 128.318 94.27 128.358 93.25H126.468V92.13H129.588V96H128.418ZM130.884 88.82H135.744V89.94H132.144V91.74H135.174V92.86H132.144V94.88H135.744V96H130.884V88.82ZM142.732 88.82V96H141.612L138.052 90.73V96H136.822V88.82H138.142L141.502 93.85V88.82H142.732ZM144.997 92.41C144.997 93.96 145.837 94.98 147.017 94.98C147.857 94.98 148.467 94.47 148.687 93.63L149.887 94.04C149.467 95.31 148.467 96.11 147.017 96.11C145.107 96.11 143.717 94.59 143.717 92.41C143.717 90.23 145.107 88.71 147.017 88.71C148.467 88.71 149.467 89.51 149.887 90.78L148.687 91.19C148.467 90.35 147.857 89.84 147.017 89.84C145.837 89.84 144.997 90.86 144.997 92.41ZM150.757 88.82H155.617V89.94H152.017V91.74H155.047V92.86H152.017V94.88H155.617V96H150.757V88.82Z" fill="#F90630"/>
<path d="M18.5 93H2.5" stroke="#F9052F" stroke-width="2" stroke-linejoin="round"/>
<circle cx="2.5" cy="93" r="2" fill="#F9052F"/>
<path d="M158.5 93L174.5 93" stroke="#F9052F" stroke-width="2" stroke-linejoin="round"/>
<circle cx="174.5" cy="93" r="2" transform="rotate(-180 174.5 93)" fill="#F9052F"/>
<path d="M158.5 62H175.5L158.5 77H176.5" stroke="white" stroke-width="3" stroke-linejoin="round"/>
<path d="M116.5 60.5V77H133.5V60.5" stroke="white" stroke-width="3" stroke-linejoin="round"/>
<path d="M75.5 78V61.5C75.5 61.5 87.9019 61.5 90.5 61.5C93.0981 61.5 93.0981 63.9708 93.0981 66C93.0981 68.0292 93.0981 70.5 90.5 70.5C87.9019 70.5 80 70.5 80 70.5" stroke="white" stroke-width="3"/>
<path d="M48.5 60.5V78" stroke="white" stroke-width="3"/>
<path d="M11.8814 56C18.1672 56 23.2629 61.122 23.2629 67.4404C23.2629 70.0346 22.4032 72.4267 20.9554 74.3458L18.8015 72.0455C19.6725 70.7257 20.1804 69.1428 20.1804 67.4404C20.1804 62.8333 16.4648 59.0984 11.8814 59.0984C7.29805 59.0984 3.58247 62.8333 3.58247 67.4404C3.58247 72.0476 7.29805 75.7824 11.8814 75.7824C12.454 75.7824 13.0129 75.7239 13.5528 75.6129L15.8614 78.1609C14.6225 78.6258 13.2817 78.8808 11.8814 78.8808C5.59565 78.8808 0.5 73.7588 0.5 67.4404C0.5 61.122 5.59565 56 11.8814 56Z" fill="white"/>
<path d="M16.7423 71.8497H11.7629L18.4021 79H23.5L16.7423 71.8497Z" fill="white"/>
<path d="M11.8814 56C18.1672 56 23.2629 61.122 23.2629 67.4404C23.2629 70.0346 22.4032 72.4267 20.9554 74.3458L18.8015 72.0455C19.6725 70.7257 20.1804 69.1428 20.1804 67.4404C20.1804 62.8333 16.4648 59.0984 11.8814 59.0984C7.29805 59.0984 3.58247 62.8333 3.58247 67.4404C3.58247 72.0476 7.29805 75.7824 11.8814 75.7824C12.454 75.7824 13.0129 75.7239 13.5528 75.6129L15.8614 78.1609C14.6225 78.6258 13.2817 78.8808 11.8814 78.8808C5.59565 78.8808 0.5 73.7588 0.5 67.4404C0.5 61.122 5.59565 56 11.8814 56Z" stroke="white"/>
<path d="M16.7423 71.8497H11.7629L18.4021 79H23.5L16.7423 71.8497Z" stroke="white"/>
<path d="M87.7371 0C101.675 0 112.974 11.3576 112.974 25.3679C112.974 31.1203 111.068 36.4243 107.858 40.6798L103.082 35.5791C105.013 32.6527 106.139 29.1428 106.139 25.3679C106.139 15.152 97.9003 6.87047 87.7371 6.87047C77.5739 6.87047 69.3351 15.152 69.3351 25.3679C69.3351 35.5837 77.5739 43.8653 87.7371 43.8653C89.0066 43.8653 90.246 43.7356 91.4432 43.4896L96.5623 49.1394C93.8151 50.1704 90.8419 50.7358 87.7371 50.7358C73.799 50.7358 62.5 39.3782 62.5 25.3679C62.5 11.3576 73.799 0 87.7371 0Z" fill="white"/>
<path d="M98.5155 35.1451H87.4742L102.196 51H113.5L98.5155 35.1451Z" fill="white"/>
</svg>
