<svg width="121" height="120" viewBox="0 0 121 120" fill="none" xmlns="http://www.w3.org/2000/svg">
<path d="M59.8763 0C92.9451 0 119.753 26.7237 119.753 59.6891C119.753 73.2242 115.23 85.7043 107.613 95.7173L96.2818 83.7156C100.864 76.8298 103.536 68.5713 103.536 59.6891C103.536 35.6519 83.9889 16.1658 59.8763 16.1658C35.7637 16.1658 16.2165 35.6519 16.2165 59.6891C16.2165 83.7264 35.7637 103.212 59.8763 103.212C62.8883 103.212 65.8288 102.907 68.6692 102.328L80.8145 115.622C74.2966 118.048 67.2426 119.378 59.8763 119.378C26.8075 119.378 0 92.6545 0 59.6891C0 26.7237 26.8075 0 59.8763 0Z" fill="black"/>
<path d="M85.4485 82.6943H59.2526L94.1804 120H121L85.4485 82.6943Z" fill="black"/>
</svg>
