<svg width="250" height="51" viewBox="0 0 250 51" fill="none" xmlns="http://www.w3.org/2000/svg">
<path d="M231 20H248L231 35H249" stroke="white" stroke-width="3" stroke-linejoin="round"/>
<path d="M189 18.5V35H206V18.5" stroke="white" stroke-width="3" stroke-linejoin="round"/>
<path d="M148 36V19.5C148 19.5 160.402 19.5 163 19.5C165.598 19.5 165.598 21.9708 165.598 24C165.598 26.0292 165.598 28.5 163 28.5C160.402 28.5 152.5 28.5 152.5 28.5" stroke="white" stroke-width="3"/>
<path d="M121 18.5V36" stroke="white" stroke-width="3"/>
<path d="M84.3814 14C90.6672 14 95.7629 19.122 95.7629 25.4404C95.7629 28.0346 94.9032 30.4267 93.4554 32.3458L91.3015 30.0455C92.1725 28.7257 92.6804 27.1428 92.6804 25.4404C92.6804 20.8333 88.9648 17.0984 84.3814 17.0984C79.798 17.0984 76.0825 20.8333 76.0825 25.4404C76.0825 30.0476 79.798 33.7824 84.3814 33.7824C84.954 33.7824 85.5129 33.7239 86.0528 33.6129L88.3614 36.1609C87.1225 36.6258 85.7817 36.8808 84.3814 36.8808C78.0956 36.8808 73 31.7588 73 25.4404C73 19.122 78.0956 14 84.3814 14Z" fill="white"/>
<path d="M89.2423 29.8497H84.2629L90.9021 37H96L89.2423 29.8497Z" fill="white"/>
<path d="M84.3814 14C90.6672 14 95.7629 19.122 95.7629 25.4404C95.7629 28.0346 94.9032 30.4267 93.4554 32.3458L91.3015 30.0455C92.1725 28.7257 92.6804 27.1428 92.6804 25.4404C92.6804 20.8333 88.9648 17.0984 84.3814 17.0984C79.798 17.0984 76.0825 20.8333 76.0825 25.4404C76.0825 30.0476 79.798 33.7824 84.3814 33.7824C84.954 33.7824 85.5129 33.7239 86.0528 33.6129L88.3614 36.1609C87.1225 36.6258 85.7817 36.8808 84.3814 36.8808C78.0956 36.8808 73 31.7588 73 25.4404C73 19.122 78.0956 14 84.3814 14Z" stroke="white"/>
<path d="M89.2423 29.8497H84.2629L90.9021 37H96L89.2423 29.8497Z" stroke="white"/>
<path d="M25.2371 0C39.1752 0 50.4742 11.3576 50.4742 25.3679C50.4742 31.1203 48.5679 36.4243 45.3577 40.6798L40.5816 35.5791C42.5129 32.6527 43.6392 29.1428 43.6392 25.3679C43.6392 15.152 35.4003 6.87047 25.2371 6.87047C15.0739 6.87047 6.83505 15.152 6.83505 25.3679C6.83505 35.5837 15.0739 43.8653 25.2371 43.8653C26.5066 43.8653 27.746 43.7356 28.9432 43.4896L34.0623 49.1394C31.3151 50.1704 28.3419 50.7358 25.2371 50.7358C11.299 50.7358 0 39.3782 0 25.3679C0 11.3576 11.299 0 25.2371 0Z" fill="white"/>
<path d="M36.0155 35.1451H24.9742L39.6959 51H51L36.0155 35.1451Z" fill="white"/>
</svg>
