<svg width="250" height="54" viewBox="0 0 250 54" fill="none" xmlns="http://www.w3.org/2000/svg">
<path d="M95.0754 47.41C95.0754 48.96 95.9154 49.98 97.0954 49.98C97.9354 49.98 98.5454 49.47 98.7654 48.63L99.9654 49.04C99.5454 50.31 98.5454 51.11 97.0954 51.11C95.1854 51.11 93.7954 49.59 93.7954 47.41C93.7954 45.23 95.1854 43.71 97.0954 43.71C98.5454 43.71 99.5454 44.51 99.9654 45.78L98.7654 46.19C98.5454 45.35 97.9354 44.84 97.0954 44.84C95.9154 44.84 95.0754 45.86 95.0754 47.41ZM100.465 47.41C100.465 45.23 101.865 43.71 103.805 43.71C105.745 43.71 107.145 45.23 107.145 47.41C107.145 49.59 105.745 51.11 103.805 51.11C101.865 51.11 100.465 49.59 100.465 47.41ZM105.865 47.41C105.865 45.85 105.015 44.84 103.805 44.84C102.595 44.84 101.745 45.85 101.745 47.41C101.745 48.97 102.595 49.98 103.805 49.98C105.015 49.98 105.865 48.97 105.865 47.41ZM114.05 43.82V51H112.93L109.37 45.73V51H108.14V43.82H109.46L112.82 48.85V43.82H114.05ZM121.316 43.82V51H120.196L116.636 45.73V51H115.406V43.82H116.726L120.086 48.85V43.82H121.316ZM122.671 43.82H127.531V44.94H123.931V46.74H126.961V47.86H123.931V49.88H127.531V51H122.671V43.82ZM129.372 47.41C129.372 48.96 130.212 49.98 131.392 49.98C132.232 49.98 132.842 49.47 133.062 48.63L134.262 49.04C133.842 50.31 132.842 51.11 131.392 51.11C129.482 51.11 128.092 49.59 128.092 47.41C128.092 45.23 129.482 43.71 131.392 43.71C132.842 43.71 133.842 44.51 134.262 45.78L133.062 46.19C132.842 45.35 132.232 44.84 131.392 44.84C130.212 44.84 129.372 45.86 129.372 47.41ZM140.404 44.94H138.094V51H136.814V44.94H134.504V43.82H140.404V44.94ZM142.516 43.82V51H141.236V43.82H142.516ZM149.782 43.82V51H148.662L145.102 45.73V51H143.872V43.82H145.192L148.552 48.85V43.82H149.782ZM155.938 51V50.26C155.648 50.74 154.948 51.11 154.008 51.11C152.148 51.11 150.768 49.61 150.768 47.44C150.768 45.26 152.158 43.71 154.088 43.71C155.558 43.71 156.548 44.5 156.988 45.77L155.768 46.18C155.558 45.33 154.958 44.84 154.098 44.84C152.888 44.84 152.048 45.87 152.048 47.42C152.048 48.97 152.888 50.01 154.118 50.01C155.158 50.01 155.838 49.27 155.878 48.25H153.988V47.13H157.108V51H155.938ZM161.744 43.82V51H160.464V43.82H161.744ZM169.011 43.82V51H167.891L164.331 45.73V51H163.101V43.82H164.421L167.781 48.85V43.82H169.011ZM175.737 44.94H173.427V51H172.147V44.94H169.837V43.82H175.737V44.94ZM176.568 43.82H181.428V44.94H177.828V46.74H180.858V47.86H177.828V49.88H181.428V51H176.568V43.82ZM182.505 51V43.82H183.785V49.88H187.165V51H182.505ZM187.993 51V43.82H189.273V49.88H192.653V51H187.993ZM194.762 43.82V51H193.482V43.82H194.762ZM200.918 51V50.26C200.628 50.74 199.928 51.11 198.988 51.11C197.128 51.11 195.748 49.61 195.748 47.44C195.748 45.26 197.138 43.71 199.068 43.71C200.538 43.71 201.528 44.5 201.968 45.77L200.748 46.18C200.538 45.33 199.938 44.84 199.078 44.84C197.868 44.84 197.028 45.87 197.028 47.42C197.028 48.97 197.868 50.01 199.098 50.01C200.138 50.01 200.818 49.27 200.858 48.25H198.968V47.13H202.088V51H200.918ZM203.384 43.82H208.244V44.94H204.644V46.74H207.674V47.86H204.644V49.88H208.244V51H203.384V43.82ZM215.232 43.82V51H214.112L210.552 45.73V51H209.322V43.82H210.642L214.002 48.85V43.82H215.232ZM217.497 47.41C217.497 48.96 218.337 49.98 219.517 49.98C220.357 49.98 220.967 49.47 221.187 48.63L222.387 49.04C221.967 50.31 220.967 51.11 219.517 51.11C217.607 51.11 216.217 49.59 216.217 47.41C216.217 45.23 217.607 43.71 219.517 43.71C220.967 43.71 221.967 44.51 222.387 45.78L221.187 46.19C220.967 45.35 220.357 44.84 219.517 44.84C218.337 44.84 217.497 45.86 217.497 47.41ZM223.257 43.82H228.117V44.94H224.517V46.74H227.547V47.86H224.517V49.88H228.117V51H223.257V43.82Z" fill="#F90630"/>
<path d="M91 48H75" stroke="#F9052F" stroke-width="2" stroke-linejoin="round"/>
<circle cx="75" cy="48" r="2" fill="#F9052F"/>
<path d="M231 48L247 48" stroke="#F9052F" stroke-width="2" stroke-linejoin="round"/>
<circle cx="247" cy="48" r="2" transform="rotate(-180 247 48)" fill="#F9052F"/>
<path d="M231 17H248L231 32H249" stroke="white" stroke-width="3" stroke-linejoin="round"/>
<path d="M189 15.5V32H206V15.5" stroke="white" stroke-width="3" stroke-linejoin="round"/>
<path d="M148 33V16.5C148 16.5 160.402 16.5 163 16.5C165.598 16.5 165.598 18.9708 165.598 21C165.598 23.0292 165.598 25.5 163 25.5C160.402 25.5 152.5 25.5 152.5 25.5" stroke="white" stroke-width="3"/>
<path d="M121 15.5V33" stroke="white" stroke-width="3"/>
<path d="M84.3814 11C90.6672 11 95.7629 16.122 95.7629 22.4404C95.7629 25.0346 94.9032 27.4267 93.4554 29.3458L91.3015 27.0455C92.1725 25.7257 92.6804 24.1428 92.6804 22.4404C92.6804 17.8333 88.9648 14.0984 84.3814 14.0984C79.798 14.0984 76.0825 17.8333 76.0825 22.4404C76.0825 27.0476 79.798 30.7824 84.3814 30.7824C84.954 30.7824 85.5129 30.7239 86.0528 30.6129L88.3614 33.1609C87.1225 33.6258 85.7817 33.8808 84.3814 33.8808C78.0956 33.8808 73 28.7588 73 22.4404C73 16.122 78.0956 11 84.3814 11Z" fill="white"/>
<path d="M89.2423 26.8497H84.2629L90.9021 34H96L89.2423 26.8497Z" fill="white"/>
<path d="M84.3814 11C90.6672 11 95.7629 16.122 95.7629 22.4404C95.7629 25.0346 94.9032 27.4267 93.4554 29.3458L91.3015 27.0455C92.1725 25.7257 92.6804 24.1428 92.6804 22.4404C92.6804 17.8333 88.9648 14.0984 84.3814 14.0984C79.798 14.0984 76.0825 17.8333 76.0825 22.4404C76.0825 27.0476 79.798 30.7824 84.3814 30.7824C84.954 30.7824 85.5129 30.7239 86.0528 30.6129L88.3614 33.1609C87.1225 33.6258 85.7817 33.8808 84.3814 33.8808C78.0956 33.8808 73 28.7588 73 22.4404C73 16.122 78.0956 11 84.3814 11Z" stroke="white"/>
<path d="M89.2423 26.8497H84.2629L90.9021 34H96L89.2423 26.8497Z" stroke="white"/>
<path d="M25.2371 0C39.1752 0 50.4742 11.3576 50.4742 25.3679C50.4742 31.1203 48.5679 36.4243 45.3577 40.6798L40.5816 35.5791C42.5129 32.6527 43.6392 29.1428 43.6392 25.3679C43.6392 15.152 35.4003 6.87047 25.2371 6.87047C15.0739 6.87047 6.83505 15.152 6.83505 25.3679C6.83505 35.5837 15.0739 43.8653 25.2371 43.8653C26.5066 43.8653 27.746 43.7356 28.9432 43.4896L34.0623 49.1394C31.3151 50.1704 28.3419 50.7358 25.2371 50.7358C11.299 50.7358 0 39.3782 0 25.3679C0 11.3576 11.299 0 25.2371 0Z" fill="white"/>
<path d="M36.0155 35.1451H24.9742L39.6959 51H51L36.0155 35.1451Z" fill="white"/>
</svg>
